<mxfile host="app.diagrams.net" modified="2023-04-18T15:27:33.494Z" agent="Mozilla/5.0 (X11; Linux x86_64; rv:109.0) Gecko/20100101 Firefox/111.0" etag="gvjnpeIYIGStq66xVutG" version="21.1.8" type="device">
  <diagram name="Page-1" id="Jr0d7oe5CIv2jIQnnl6r">
    <mxGraphModel dx="1134" dy="1540" grid="1" gridSize="10" guides="1" tooltips="1" connect="1" arrows="1" fold="1" page="1" pageScale="1" pageWidth="850" pageHeight="1100" math="0" shadow="0">
      <root>
        <mxCell id="0" />
        <mxCell id="1" parent="0" />
        <mxCell id="H0NAA2prKZBx58k8jLJE-6" value="Calls" style="edgeStyle=orthogonalEdgeStyle;rounded=0;orthogonalLoop=1;jettySize=auto;html=1;" edge="1" parent="1" source="H0NAA2prKZBx58k8jLJE-1">
          <mxGeometry relative="1" as="geometry">
            <mxPoint x="310" y="430" as="targetPoint" />
          </mxGeometry>
        </mxCell>
        <mxCell id="H0NAA2prKZBx58k8jLJE-1" value="Developer" style="shape=umlActor;verticalLabelPosition=bottom;verticalAlign=top;html=1;outlineConnect=0;" vertex="1" parent="1">
          <mxGeometry x="210" y="400" width="30" height="60" as="geometry" />
        </mxCell>
        <mxCell id="H0NAA2prKZBx58k8jLJE-3" style="edgeStyle=orthogonalEdgeStyle;rounded=0;orthogonalLoop=1;jettySize=auto;html=1;" edge="1" parent="1" source="H0NAA2prKZBx58k8jLJE-2" target="H0NAA2prKZBx58k8jLJE-1">
          <mxGeometry relative="1" as="geometry" />
        </mxCell>
        <mxCell id="H0NAA2prKZBx58k8jLJE-2" value="Record" style="whiteSpace=wrap;html=1;aspect=fixed;" vertex="1" parent="1">
          <mxGeometry x="70" y="390" width="80" height="80" as="geometry" />
        </mxCell>
        <mxCell id="H0NAA2prKZBx58k8jLJE-12" value="Returns" style="edgeStyle=orthogonalEdgeStyle;rounded=0;orthogonalLoop=1;jettySize=auto;html=1;" edge="1" parent="1" source="H0NAA2prKZBx58k8jLJE-5" target="H0NAA2prKZBx58k8jLJE-9">
          <mxGeometry relative="1" as="geometry">
            <Array as="points">
              <mxPoint x="420" y="430" />
              <mxPoint x="420" y="430" />
            </Array>
          </mxGeometry>
        </mxCell>
        <mxCell id="H0NAA2prKZBx58k8jLJE-5" value="Query" style="whiteSpace=wrap;html=1;aspect=fixed;" vertex="1" parent="1">
          <mxGeometry x="320" y="390" width="80" height="80" as="geometry" />
        </mxCell>
        <mxCell id="H0NAA2prKZBx58k8jLJE-8" style="edgeStyle=orthogonalEdgeStyle;rounded=0;orthogonalLoop=1;jettySize=auto;html=1;endArrow=none;endFill=0;" edge="1" parent="1" source="H0NAA2prKZBx58k8jLJE-7" target="H0NAA2prKZBx58k8jLJE-5">
          <mxGeometry relative="1" as="geometry" />
        </mxCell>
        <mxCell id="H0NAA2prKZBx58k8jLJE-7" value="&lt;div&gt;&lt;br&gt;&lt;/div&gt;&lt;div&gt;&lt;br&gt;&lt;/div&gt;&lt;div&gt;Facade / Builder&lt;/div&gt;" style="shape=note;whiteSpace=wrap;html=1;backgroundOutline=1;darkOpacity=0.05;" vertex="1" parent="1">
          <mxGeometry x="320" y="290" width="80" height="70" as="geometry" />
        </mxCell>
        <mxCell id="H0NAA2prKZBx58k8jLJE-13" value="Returns" style="edgeStyle=orthogonalEdgeStyle;rounded=0;orthogonalLoop=1;jettySize=auto;html=1;entryX=0.75;entryY=1;entryDx=0;entryDy=0;" edge="1" parent="1" source="H0NAA2prKZBx58k8jLJE-9" target="H0NAA2prKZBx58k8jLJE-2">
          <mxGeometry relative="1" as="geometry">
            <Array as="points">
              <mxPoint x="510" y="550" />
              <mxPoint x="130" y="550" />
            </Array>
          </mxGeometry>
        </mxCell>
        <mxCell id="H0NAA2prKZBx58k8jLJE-17" value="Subclass" style="edgeStyle=orthogonalEdgeStyle;rounded=0;orthogonalLoop=1;jettySize=auto;html=1;entryX=0;entryY=0.5;entryDx=0;entryDy=0;" edge="1" parent="1" source="H0NAA2prKZBx58k8jLJE-9" target="H0NAA2prKZBx58k8jLJE-16">
          <mxGeometry relative="1" as="geometry" />
        </mxCell>
        <mxCell id="H0NAA2prKZBx58k8jLJE-19" value="Subclass" style="edgeStyle=orthogonalEdgeStyle;rounded=0;orthogonalLoop=1;jettySize=auto;html=1;entryX=0;entryY=0.5;entryDx=0;entryDy=0;" edge="1" parent="1" source="H0NAA2prKZBx58k8jLJE-9" target="H0NAA2prKZBx58k8jLJE-18">
          <mxGeometry relative="1" as="geometry" />
        </mxCell>
        <mxCell id="H0NAA2prKZBx58k8jLJE-14" value="Exposed to User" style="swimlane;whiteSpace=wrap;html=1;" vertex="1" parent="1">
          <mxGeometry x="50" y="230" width="510" height="390" as="geometry" />
        </mxCell>
        <mxCell id="H0NAA2prKZBx58k8jLJE-9" value="Cursor" style="whiteSpace=wrap;html=1;aspect=fixed;" vertex="1" parent="H0NAA2prKZBx58k8jLJE-14">
          <mxGeometry x="420" y="160" width="80" height="80" as="geometry" />
        </mxCell>
        <mxCell id="H0NAA2prKZBx58k8jLJE-10" value="&lt;div&gt;&lt;br&gt;&lt;/div&gt;&lt;div&gt;&lt;br&gt;&lt;/div&gt;&lt;div&gt;Generator Iterable&lt;/div&gt;" style="shape=note;whiteSpace=wrap;html=1;backgroundOutline=1;darkOpacity=0.05;" vertex="1" parent="H0NAA2prKZBx58k8jLJE-14">
          <mxGeometry x="420" y="60" width="80" height="70" as="geometry" />
        </mxCell>
        <mxCell id="H0NAA2prKZBx58k8jLJE-11" style="edgeStyle=orthogonalEdgeStyle;rounded=0;orthogonalLoop=1;jettySize=auto;html=1;endArrow=none;endFill=0;" edge="1" parent="H0NAA2prKZBx58k8jLJE-14" source="H0NAA2prKZBx58k8jLJE-9" target="H0NAA2prKZBx58k8jLJE-10">
          <mxGeometry relative="1" as="geometry" />
        </mxCell>
        <mxCell id="H0NAA2prKZBx58k8jLJE-24" value="Produces" style="edgeStyle=orthogonalEdgeStyle;rounded=0;orthogonalLoop=1;jettySize=auto;html=1;entryX=0.5;entryY=1;entryDx=0;entryDy=0;" edge="1" parent="1" source="H0NAA2prKZBx58k8jLJE-16" target="H0NAA2prKZBx58k8jLJE-21">
          <mxGeometry relative="1" as="geometry">
            <Array as="points">
              <mxPoint x="750" y="280" />
              <mxPoint x="670" y="280" />
            </Array>
          </mxGeometry>
        </mxCell>
        <mxCell id="H0NAA2prKZBx58k8jLJE-33" value="Query Compilation / HTTP GET" style="edgeStyle=orthogonalEdgeStyle;rounded=0;orthogonalLoop=1;jettySize=auto;html=1;" edge="1" parent="1" source="H0NAA2prKZBx58k8jLJE-16" target="H0NAA2prKZBx58k8jLJE-23">
          <mxGeometry relative="1" as="geometry" />
        </mxCell>
        <mxCell id="H0NAA2prKZBx58k8jLJE-16" value="ApiServiceCursor" style="rounded=0;whiteSpace=wrap;html=1;" vertex="1" parent="1">
          <mxGeometry x="660" y="320" width="210" height="60" as="geometry" />
        </mxCell>
        <mxCell id="H0NAA2prKZBx58k8jLJE-20" value="Decorates" style="edgeStyle=orthogonalEdgeStyle;rounded=0;orthogonalLoop=1;jettySize=auto;html=1;entryX=0.5;entryY=1;entryDx=0;entryDy=0;" edge="1" parent="1" source="H0NAA2prKZBx58k8jLJE-18" target="H0NAA2prKZBx58k8jLJE-16">
          <mxGeometry relative="1" as="geometry" />
        </mxCell>
        <mxCell id="H0NAA2prKZBx58k8jLJE-32" style="edgeStyle=orthogonalEdgeStyle;rounded=0;orthogonalLoop=1;jettySize=auto;html=1;" edge="1" parent="1" source="H0NAA2prKZBx58k8jLJE-18">
          <mxGeometry relative="1" as="geometry">
            <mxPoint x="1050" y="520" as="targetPoint" />
          </mxGeometry>
        </mxCell>
        <mxCell id="H0NAA2prKZBx58k8jLJE-34" value="HTTP GET" style="edgeLabel;html=1;align=center;verticalAlign=middle;resizable=0;points=[];" vertex="1" connectable="0" parent="H0NAA2prKZBx58k8jLJE-32">
          <mxGeometry x="0.1503" relative="1" as="geometry">
            <mxPoint as="offset" />
          </mxGeometry>
        </mxCell>
        <mxCell id="H0NAA2prKZBx58k8jLJE-39" value="Records" style="edgeStyle=orthogonalEdgeStyle;rounded=0;orthogonalLoop=1;jettySize=auto;html=1;entryX=0.5;entryY=0;entryDx=0;entryDy=0;" edge="1" parent="1" source="H0NAA2prKZBx58k8jLJE-18" target="H0NAA2prKZBx58k8jLJE-36">
          <mxGeometry relative="1" as="geometry">
            <Array as="points">
              <mxPoint x="710" y="590" />
              <mxPoint x="640" y="590" />
            </Array>
          </mxGeometry>
        </mxCell>
        <mxCell id="H0NAA2prKZBx58k8jLJE-40" value="Records" style="edgeStyle=orthogonalEdgeStyle;rounded=0;orthogonalLoop=1;jettySize=auto;html=1;entryX=0.5;entryY=0;entryDx=0;entryDy=0;" edge="1" parent="1" source="H0NAA2prKZBx58k8jLJE-18" target="H0NAA2prKZBx58k8jLJE-37">
          <mxGeometry relative="1" as="geometry">
            <Array as="points">
              <mxPoint x="710" y="590" />
              <mxPoint x="770" y="590" />
            </Array>
          </mxGeometry>
        </mxCell>
        <mxCell id="H0NAA2prKZBx58k8jLJE-41" value="Produces" style="edgeStyle=orthogonalEdgeStyle;rounded=0;orthogonalLoop=1;jettySize=auto;html=1;entryX=0.5;entryY=0;entryDx=0;entryDy=0;" edge="1" parent="1" source="H0NAA2prKZBx58k8jLJE-18" target="H0NAA2prKZBx58k8jLJE-38">
          <mxGeometry relative="1" as="geometry">
            <Array as="points">
              <mxPoint x="820" y="590" />
              <mxPoint x="920" y="590" />
            </Array>
          </mxGeometry>
        </mxCell>
        <mxCell id="H0NAA2prKZBx58k8jLJE-18" value="NegativeInferenceCursorDecorator" style="rounded=0;whiteSpace=wrap;html=1;" vertex="1" parent="1">
          <mxGeometry x="660" y="490" width="210" height="60" as="geometry" />
        </mxCell>
        <mxCell id="H0NAA2prKZBx58k8jLJE-25" style="edgeStyle=orthogonalEdgeStyle;rounded=0;orthogonalLoop=1;jettySize=auto;html=1;entryX=0;entryY=0.5;entryDx=0;entryDy=0;" edge="1" parent="1" source="H0NAA2prKZBx58k8jLJE-21" target="H0NAA2prKZBx58k8jLJE-22">
          <mxGeometry relative="1" as="geometry" />
        </mxCell>
        <mxCell id="H0NAA2prKZBx58k8jLJE-21" value="ParseRecordResult" style="rounded=0;whiteSpace=wrap;html=1;" vertex="1" parent="1">
          <mxGeometry x="610" y="180" width="120" height="60" as="geometry" />
        </mxCell>
        <mxCell id="H0NAA2prKZBx58k8jLJE-26" style="edgeStyle=orthogonalEdgeStyle;rounded=0;orthogonalLoop=1;jettySize=auto;html=1;" edge="1" parent="1" source="H0NAA2prKZBx58k8jLJE-22" target="H0NAA2prKZBx58k8jLJE-16">
          <mxGeometry relative="1" as="geometry">
            <Array as="points">
              <mxPoint x="840" y="280" />
              <mxPoint x="780" y="280" />
            </Array>
          </mxGeometry>
        </mxCell>
        <mxCell id="H0NAA2prKZBx58k8jLJE-43" value="Subclasses" style="edgeStyle=orthogonalEdgeStyle;rounded=0;orthogonalLoop=1;jettySize=auto;html=1;entryX=0.5;entryY=0;entryDx=0;entryDy=0;" edge="1" parent="1" source="H0NAA2prKZBx58k8jLJE-22" target="H0NAA2prKZBx58k8jLJE-2">
          <mxGeometry relative="1" as="geometry">
            <Array as="points">
              <mxPoint x="840" y="140" />
              <mxPoint x="110" y="140" />
            </Array>
          </mxGeometry>
        </mxCell>
        <mxCell id="H0NAA2prKZBx58k8jLJE-22" value="ApiRecord" style="rounded=0;whiteSpace=wrap;html=1;" vertex="1" parent="1">
          <mxGeometry x="780" y="180" width="120" height="60" as="geometry" />
        </mxCell>
        <mxCell id="H0NAA2prKZBx58k8jLJE-23" value="REST API" style="ellipse;shape=cloud;whiteSpace=wrap;html=1;" vertex="1" parent="1">
          <mxGeometry x="1050" y="310" width="120" height="80" as="geometry" />
        </mxCell>
        <mxCell id="H0NAA2prKZBx58k8jLJE-31" value="&lt;div&gt;Hauls&lt;/div&gt;&lt;div&gt;Flat File&lt;br&gt;&lt;/div&gt;" style="ellipse;shape=cloud;whiteSpace=wrap;html=1;" vertex="1" parent="1">
          <mxGeometry x="1050" y="480" width="120" height="80" as="geometry" />
        </mxCell>
        <mxCell id="H0NAA2prKZBx58k8jLJE-36" value="SpeciesRecord" style="rounded=0;whiteSpace=wrap;html=1;" vertex="1" parent="1">
          <mxGeometry x="580" y="630" width="120" height="60" as="geometry" />
        </mxCell>
        <mxCell id="H0NAA2prKZBx58k8jLJE-37" value="Haul" style="rounded=0;whiteSpace=wrap;html=1;" vertex="1" parent="1">
          <mxGeometry x="710" y="630" width="120" height="60" as="geometry" />
        </mxCell>
        <mxCell id="H0NAA2prKZBx58k8jLJE-42" value="Decorates" style="edgeStyle=orthogonalEdgeStyle;rounded=0;orthogonalLoop=1;jettySize=auto;html=1;entryX=0.5;entryY=1;entryDx=0;entryDy=0;" edge="1" parent="1" source="H0NAA2prKZBx58k8jLJE-38" target="H0NAA2prKZBx58k8jLJE-37">
          <mxGeometry relative="1" as="geometry">
            <Array as="points">
              <mxPoint x="890" y="710" />
              <mxPoint x="770" y="710" />
            </Array>
          </mxGeometry>
        </mxCell>
        <mxCell id="H0NAA2prKZBx58k8jLJE-44" value="Subclasses" style="edgeStyle=orthogonalEdgeStyle;rounded=0;orthogonalLoop=1;jettySize=auto;html=1;" edge="1" parent="1" source="H0NAA2prKZBx58k8jLJE-38">
          <mxGeometry relative="1" as="geometry">
            <mxPoint x="90" y="470" as="targetPoint" />
            <Array as="points">
              <mxPoint x="920" y="750" />
              <mxPoint x="90" y="750" />
            </Array>
          </mxGeometry>
        </mxCell>
        <mxCell id="H0NAA2prKZBx58k8jLJE-38" value="ZeroCatchHaulDecorator" style="rounded=0;whiteSpace=wrap;html=1;" vertex="1" parent="1">
          <mxGeometry x="840" y="630" width="160" height="60" as="geometry" />
        </mxCell>
      </root>
    </mxGraphModel>
  </diagram>
</mxfile>
